<svg xmlns="http://www.w3.org/2000/svg" viewBox="0 0 32 32" fill="none">
  <rect width="32" height="32" rx="8" fill="#fff"/>
  <g>
    <rect x="8" y="8" width="16" height="16" rx="4" fill="#6366f1"/>
    <path d="M16 11c-2.5 0-4.5 1.12-4.5 2.5V21c0 1.38 2 2.5 4.5 2.5s4.5-1.12 4.5-2.5v-7.5C20.5 12.12 18.5 11 16 11zm0 1.5c2.07 0 3.5.83 3.5 1.5s-1.43 1.5-3.5 1.5-3.5-.83-3.5-1.5 1.43-1.5 3.5-1.5zm0 10c-2.07 0-3.5-.83-3.5-1.5v-4.5c.82.54 2.13.9 3.5.9s2.68-.36 3.5-.9v4.5c0 .67-1.43 1.5-3.5 1.5z" fill="#fff"/>
  </g>
</svg>
